<svg width="1440" height="206" viewBox="0 0 1440 206" fill="none" xmlns="http://www.w3.org/2000/svg">
<path d="M1440 103.018C1440 46.1178 1394.6 -4.5187e-06 1338.59 -1.00939e-05C1338.13 -1.01392e-05 1337.71 -1.0181e-05 1337.26 -1.02264e-05L1237 -2.02052e-05L1237 206L1338.59 206C1394.6 206 1440 159.882 1440 102.982L1440 103.018Z" fill="#6E76FF"/>
<path d="M1221 206L1020 206L1020 -1.74755e-05L1221 9.65083e-08L1221 206Z" fill="#FFE685"/>
<path d="M1120.2 89.6162C1093.9 89.6162 1072.58 111.405 1072.58 138.283C1072.58 165.161 1093.9 186.95 1120.2 186.95C1146.5 186.95 1167.82 165.161 1167.82 138.283C1167.82 111.405 1146.5 89.6162 1120.2 89.6162Z" fill="#EBF0FF"/>
<path d="M1120.2 18.2383C1093.9 18.2383 1072.58 40.0272 1072.58 66.9053C1072.58 93.7833 1093.9 115.572 1120.2 115.572C1146.5 115.572 1167.82 93.7833 1167.82 66.9053C1167.82 40.0272 1146.5 18.2383 1120.2 18.2383Z" fill="#97A7FF"/>
<path d="M902.518 103C846.446 103 801 149.11 801 206L1004 206C1004 149.11 958.554 103 902.482 103L902.518 103Z" fill="#FFBD1B"/>
<path d="M902.482 103C958.554 103 1004 56.8902 1004 2.77344e-05L801 1.79747e-06C801 56.8901 846.446 103 902.518 103L902.482 103Z" fill="#FF9900"/>
<path d="M682.518 1.79248e-05C625.894 8.02435e-06 580 46.0701 580 102.911C580 103.373 580 103.8 580 104.262L580 206L785 206L785 102.911C785 46.0701 739.106 2.7819e-05 682.482 1.79186e-05L682.518 1.79248e-05Z" fill="#6E76FF"/>
<rect x="564" y="206" width="77" height="206" transform="rotate(-180 564 206)" fill="#DBE2FF"/>
<path d="M471 206L103 206C46.1147 206 -2.64861e-05 159.885 -2.1513e-05 103V103C-1.654e-05 46.1146 46.1147 -3.71447e-05 103 -3.21716e-05L471 0L471 206Z" fill="#6E76FF"/>
</svg>
