<svg width="435" height="73" viewBox="0 0 435 73" fill="none" xmlns="http://www.w3.org/2000/svg">
<rect width="435" height="73" fill="#FFBD1B"/>
<path d="M167 73L36.5 73C16.3416 73 1.27889e-06 56.6584 2.85648e-06 36.5V36.5C4.43407e-06 16.3416 16.3416 -1.47131e-05 36.5 -1.27445e-05L167 0L167 73Z" fill="#5441FF"/>
<rect width="29" height="73" transform="translate(175)" fill="#97A7FF"/>
<rect x="167" width="39" height="73" fill="#6E76FF"/>
<path d="M246.506 35.457C227.447 35.457 212 52.2638 212 72.9999L281 72.9999C281 52.2638 265.553 35.457 246.494 35.457L246.506 35.457Z" fill="#FF6B00"/>
<path d="M246.994 35.457C265.777 35.457 281 19.584 281 -9.99848e-05L213 -0.000109271C213 19.584 228.223 35.457 247.006 35.457L246.994 35.457Z" fill="#FF6B00"/>
<path d="M365 36.5063C365 16.3427 348.003 -1.68717e-06 327.033 -3.76879e-06C326.862 -3.78571e-06 326.705 -3.80134e-06 326.534 -3.81826e-06L289 -7.54409e-06L289 73L327.033 73C348.003 73 365 56.6573 365 36.4937L365 36.5063Z" fill="#5441FF"/>
<rect width="62" height="73" transform="translate(373)" fill="#97A7FF"/>
<path d="M404 41C409.523 41 414 36.5228 414 31C414 25.4772 409.523 21 404 21C398.477 21 394 25.4772 394 31C394 36.5228 398.477 41 404 41Z" fill="#EBF0FF"/>
<path d="M404 52C409.523 52 414 47.5228 414 42C414 36.4772 409.523 32 404 32C398.477 32 394 36.4772 394 42C394 47.5228 398.477 52 404 52Z" fill="#6E76FF"/>
</svg>
