<svg width="1528" height="207" viewBox="0 0 1528 207" fill="none" xmlns="http://www.w3.org/2000/svg">
<path d="M0 0L393 0C449.885 0 496 46.1147 496 103V103C496 159.885 449.885 206 393 206L0 206L0 0Z" fill="#6E76FF"/>
<path d="M504 102.982C504 159.882 549.399 206 605.412 206C605.868 206 606.288 206 606.744 206L707 206L707 3.72171e-07L605.412 -8.58057e-07C549.399 -1.53638e-06 504 46.1178 504 103.018L504 102.982Z" fill="#FFE685"/>
<path d="M816.427 103C760.405 103 715 149.19 715 206.179L917.818 206.179C917.818 149.19 872.413 103 816.392 103L816.427 103Z" fill="#FF9900"/>
<path d="M816.427 -4.41322e-06C760.405 -6.85163e-06 715 46.19 715 103.179L917.818 103.179C917.818 46.19 872.413 -1.97634e-06 816.392 -4.41475e-06L816.427 -4.41322e-06Z" fill="#FFBD1B"/>
<path d="M1129.82 103.018C1129.82 46.1178 1084.2 5.44046e-07 1027.91 1.21529e-06C1027.45 1.22075e-06 1027.03 1.22578e-06 1026.57 1.23124e-06L925.818 2.43268e-06L925.818 206L1027.91 206C1084.2 206 1129.82 159.882 1129.82 102.982L1129.82 103.018Z" fill="#BECAFF"/>
<path d="M1233.26 47.6211C1233.26 21.3208 1211.9 8.06853e-05 1185.54 8.18373e-05C1159.18 8.29894e-05 1137.82 21.3208 1137.82 47.6211C1137.82 73.9215 1159.18 95.2422 1185.54 95.2422C1211.9 95.2422 1233.26 73.9215 1233.26 47.6211Z" fill="#97A7FF"/>
<rect x="1241.26" width="77" height="206" fill="#FF9900"/>
<rect x="1326.26" width="201" height="206" fill="#97A7FF"/>
</svg>
