<svg width="435" height="73" viewBox="0 0 435 73" fill="none" xmlns="http://www.w3.org/2000/svg">
<rect width="435" height="73" fill="#6E76FF"/>
<path d="M167 72.5L36 72.5C16.1177 72.5 1.26137e-06 56.3822 2.81735e-06 36.5V36.5C4.37333e-06 16.6177 16.1178 0.500001 36 0.500002L167 0.500015L167 72.5Z" fill="#5441FF"/>
<rect width="29" height="73" transform="translate(175)" fill="#97A7FF"/>
<rect x="167" width="39" height="73" fill="#97A7FF"/>
<path d="M246.506 35.457C227.447 35.457 212 52.2638 212 72.9999L281 72.9999C281 52.2638 265.553 35.457 246.494 35.457L246.506 35.457Z" fill="#FF9900"/>
<path d="M246.994 35.457C265.777 35.457 281 19.584 281 -9.99848e-05L213 -0.000109271C213 19.584 228.223 35.457 247.006 35.457L246.994 35.457Z" fill="#FF9900"/>
<rect width="62" height="73" transform="translate(289)" fill="#FFE685"/>
<path d="M320 41C325.523 41 330 36.5228 330 31C330 25.4772 325.523 21 320 21C314.477 21 310 25.4772 310 31C310 36.5228 314.477 41 320 41Z" fill="#EBF0FF"/>
<path d="M320 52C325.523 52 330 47.5228 330 42C330 36.4772 325.523 32 320 32C314.477 32 310 36.4772 310 42C310 47.5228 314.477 52 320 52Z" fill="#97A7FF"/>
<path d="M435 36.5063C435 16.3427 418.003 -1.68717e-06 397.033 -3.76879e-06C396.862 -3.78571e-06 396.705 -3.80134e-06 396.534 -3.81826e-06L359 -7.54409e-06L359 73L397.033 73C418.003 73 435 56.6573 435 36.4937L435 36.5063Z" fill="#5441FF"/>
</svg>
