<svg width="1539" height="207" viewBox="0 0 1539 207" fill="none" xmlns="http://www.w3.org/2000/svg">
<path d="M0 0L698 0C754.885 0 801 46.1147 801 103V103C801 159.885 754.885 206 698 206L0 206L0 0Z" fill="#6E76FF"/>
<path d="M809 102.187C809 158.648 854.44 204.409 910.504 204.409C910.96 204.409 911.38 204.409 911.836 204.409L1012.18 204.409L1012.18 -8.52775e-05L910.504 -8.65088e-05C854.44 -8.71878e-05 809 45.7616 809 102.222L809 102.187Z" fill="#FFE685"/>
<path d="M1121.61 103C1065.59 103 1020.18 149.19 1020.18 206.179L1223 206.179C1223 149.19 1177.6 103 1121.58 103L1121.61 103Z" fill="#FF9900"/>
<path d="M1121.61 -4.41322e-06C1065.59 -6.85163e-06 1020.18 46.19 1020.18 103.179L1223 103.179C1223 46.19 1177.6 -1.97634e-06 1121.58 -4.41475e-06L1121.61 -4.41322e-06Z" fill="#FFBD1B"/>
<path d="M1435 102.518C1435 45.8939 1389.38 5.44046e-07 1333.09 1.21529e-06C1332.63 1.22075e-06 1332.21 1.22578e-06 1331.75 1.23124e-06L1231 2.43268e-06L1231 205L1333.09 205C1389.38 205 1435 159.106 1435 102.482L1435 102.518Z" fill="#BECAFF"/>
<path d="M1538.45 47.6211C1538.45 21.3208 1517.08 8.06853e-05 1490.72 8.18373e-05C1464.37 8.29894e-05 1443 21.3208 1443 47.6211C1443 73.9215 1464.37 95.2422 1490.72 95.2422C1517.08 95.2422 1538.45 73.9215 1538.45 47.6211Z" fill="#97A7FF"/>
</svg>
