<svg width="442" height="73" viewBox="0 0 442 73" fill="none" xmlns="http://www.w3.org/2000/svg">
<rect width="441.164" height="73" fill="#FFBD1B"/>
<rect width="290" height="73" transform="translate(290 73) rotate(180)" fill="#BECAFF"/>
<path d="M0 0L253.5 -9.40591e-07C273.658 -1.01539e-06 290 16.3416 290 36.5V36.5C290 56.6584 273.658 73 253.5 73L-6.01048e-06 73L0 0Z" fill="#6E76FF"/>
<rect width="151.164" height="73" transform="translate(290)" fill="#BECAFF"/>
<path d="M331.082 36.5063C331.082 16.3427 314.309 -1.66497e-06 293.614 -3.7192e-06C292.354 -3.84434e-06 293 -3.7192e-06 291.921 0L290 0L290 73L293.614 73C314.309 73 331.082 56.6573 331.082 36.4937L331.082 36.5063Z" fill="#FF6B00"/>
<path d="M372.164 36.5063C372.164 16.3427 355.391 -1.66497e-06 334.696 -3.7192e-06C333.436 -3.84434e-06 334.082 -3.7192e-06 333.003 0L331.082 0L331.082 73L334.696 73C355.391 73 372.164 56.6573 372.164 36.4937L372.164 36.5063Z" fill="#FF6B00"/>
<rect width="69" height="73" transform="translate(372.164)" fill="#BECAFF"/>
<path d="M406.67 35.457C387.611 35.457 372.164 52.2638 372.164 72.9999L441.164 72.9999C441.164 52.2638 425.717 35.457 406.658 35.457L406.67 35.457Z" fill="#5441FF"/>
<path d="M407.158 35.457C425.941 35.457 441.164 19.584 441.164 -9.99848e-05L373.164 -0.000109271C373.164 19.584 388.387 35.457 407.17 35.457L407.158 35.457Z" fill="#5441FF"/>
</svg>
