<svg width="797" height="630" viewBox="0 0 797 630" fill="none" xmlns="http://www.w3.org/2000/svg">
<g clip-path="url(#clip0_2068_9150)">
<path d="M601 105.018C601 47.0128 553.995 -0.000531687 496 -0.000536223L496 209.999C553.995 209.999 601 162.986 601 104.981L601 105.018Z" fill="#FF9900"/>
<path d="M496 105.018C496 47.0133 448.995 7.86989e-06 391 3.5305e-06L391 210C448.995 210 496 162.987 496 104.982L496 105.018Z" fill="#FFBD1B"/>
<path d="M390.088 105.018C390.136 47.0133 343.171 3.89733e-05 285.176 3.46401e-05L285 210C342.995 210 390.039 162.987 390.088 104.982L390.088 105.018Z" fill="#5441FF"/>
<path d="M253.444 61.3217C212.463 20.2718 146.009 20.2382 105.001 61.2467L253.369 209.863C294.378 168.855 294.4 102.346 253.418 61.296L253.444 61.3217Z" fill="#6E76FF"/>
<path d="M105.018 105.088C47.0133 105.039 4.04307e-05 152.005 3.78957e-05 210L210 210.176C210 152.181 162.987 105.136 104.982 105.088L105.018 105.088Z" fill="#BECAFF"/>
<path d="M692 525.018C692 467.013 644.995 420 587 420L587 630C644.995 630 692 582.987 692 524.982L692 525.018Z" fill="#FF9900"/>
<rect x="377" y="420" width="210" height="210.168" fill="#FFE685"/>
<path d="M482 531C506.301 531 526 511.524 526 487.5C526 463.476 506.301 444 482 444C457.699 444 438 463.476 438 487.5C438 511.524 457.699 531 482 531Z" fill="#5441FF"/>
<path d="M482 596C506.301 596 526 576.301 526 552C526 527.699 506.301 508 482 508C457.699 508 438 527.699 438 552C438 576.301 457.699 596 482 596Z" fill="#97A7FF"/>
<path d="M692.205 524.982C692.205 582.987 739.21 630 797.205 630V420C739.21 420 692.205 467.013 692.205 525.018V524.982Z" fill="#FFBD1B"/>
<path d="M601 104.982C601 162.987 647.533 210 704.944 210C705.411 210 705.842 210 706.309 210L846 210L846 105L846 1.3297e-05L704.944 1.16125e-05C647.533 1.09269e-05 601 47.0133 601 105.018L601 104.982Z" fill="#FFE685"/>
<rect y="210" width="285" height="210" fill="#FFBD1B"/>
<path d="M389 315.018C389 257.013 341.995 210 284 210L284 420C341.995 420 389 372.987 389 314.982L389 315.018Z" fill="#FFBD1B"/>
<path d="M376 525.018C376 467.013 328.995 420 271 420L271 630C328.995 630 376 582.987 376 524.982L376 525.018Z" fill="#6E76FF"/>
<rect x="142" y="420" width="129" height="210" fill="#6E76FF"/>
<rect x="0.000244141" y="420" width="80" height="210" fill="#DBE2FF"/>
<rect x="803" y="420" width="310" height="210" transform="rotate(-180 803 420)" fill="#DBE2FF"/>
<path d="M389 314.982C389 372.987 436.005 420 494 420L494 210C436.005 210 389 257.013 389 315.018L389 314.982Z" fill="#DBE2FF"/>
</g>
<defs>
<clipPath id="clip0_2068_9150">
<rect width="797" height="630" fill="white"/>
</clipPath>
</defs>
</svg>
