<svg width="905" height="400" viewBox="0 0 905 400" fill="none" xmlns="http://www.w3.org/2000/svg">
<g clip-path="url(#clip0_638_1744)">
<path d="M823.243 276L894 210.001L894 207L355 207L355 276L823.243 276Z" fill="url(#paint0_linear_638_1744)" fill-opacity="0.7"/>
<path d="M803.853 207L854 141.001L854 138L472 138L472 207L803.853 207Z" fill="url(#paint1_linear_638_1744)"/>
<path d="M802.243 138L873 72.001L873 69L334 69L334 138L802.243 138Z" fill="url(#paint2_linear_638_1744)" fill-opacity="0.7"/>
<path d="M699.243 138L770 72.001L770 69L231 69L231 138L699.243 138Z" fill="url(#paint3_linear_638_1744)" fill-opacity="0.7"/>
<path d="M468.243 150L539 84.001L539 81L0 81L-5.58408e-06 150L468.243 150Z" fill="url(#paint4_linear_638_1744)" fill-opacity="0.7"/>
<path d="M709.243 69L780 3.00095L780 0L241 -1.28087e-05L241 69L709.243 69Z" fill="url(#paint5_linear_638_1744)" fill-opacity="0.7"/>
<path d="M689.243 345L760 279.001L760 276L221 276L221 345L689.243 345Z" fill="url(#paint6_linear_638_1744)" fill-opacity="0.7"/>
<path d="M532.243 288L603 222.001L603 219L64 219L64 288L532.243 288Z" fill="url(#paint7_linear_638_1744)" fill-opacity="0.7"/>
<path d="M737.243 400L808 334.001L808 331L269 331L269 400L737.243 400Z" fill="url(#paint8_linear_638_1744)" fill-opacity="0.7"/>
<path d="M642.243 254L713 188.001L713 185L174 185L174 254L642.243 254Z" fill="url(#paint9_linear_638_1744)" fill-opacity="0.7"/>
<path d="M537.243 185L608 119.001L608 116L69 116L69 185L537.243 185Z" fill="url(#paint10_linear_638_1744)" fill-opacity="0.7"/>
<path d="M335.728 197.592V195.648H337.12V197.592H335.728ZM335.728 213V200.376H337.12V213H335.728ZM340.58 213V200.376H341.636L341.804 202.44H341.972C342.34 201.832 342.74 201.36 343.172 201.024C343.604 200.672 344.068 200.432 344.564 200.304C345.076 200.16 345.62 200.088 346.196 200.088C347.06 200.088 347.804 200.264 348.428 200.616C349.052 200.968 349.476 201.576 349.7 202.44H349.868C350.204 201.848 350.588 201.384 351.02 201.048C351.452 200.696 351.916 200.448 352.412 200.304C352.924 200.16 353.46 200.088 354.02 200.088C354.788 200.088 355.46 200.216 356.036 200.472C356.612 200.712 357.06 201.128 357.38 201.72C357.7 202.296 357.86 203.088 357.86 204.096V213H356.468V204.168C356.468 203.576 356.396 203.096 356.252 202.728C356.108 202.36 355.9 202.08 355.628 201.888C355.372 201.68 355.076 201.536 354.74 201.456C354.404 201.376 354.036 201.336 353.636 201.336C352.996 201.336 352.388 201.496 351.812 201.816C351.252 202.136 350.796 202.608 350.444 203.232C350.092 203.856 349.916 204.616 349.916 205.512V213H348.524V204.168C348.524 203.576 348.452 203.096 348.308 202.728C348.164 202.36 347.964 202.08 347.708 201.888C347.468 201.68 347.18 201.536 346.844 201.456C346.508 201.376 346.156 201.336 345.788 201.336C345.132 201.336 344.508 201.496 343.916 201.816C343.34 202.136 342.868 202.608 342.5 203.232C342.148 203.856 341.972 204.616 341.972 205.512V213H340.58ZM364.301 213.288C363.757 213.288 363.237 213.224 362.741 213.096C362.261 212.968 361.837 212.768 361.469 212.496C361.101 212.208 360.813 211.848 360.605 211.416C360.397 210.984 360.293 210.456 360.293 209.832C360.293 208.952 360.509 208.24 360.941 207.696C361.389 207.152 362.005 206.736 362.789 206.448C363.573 206.144 364.501 205.936 365.573 205.824C366.645 205.712 367.805 205.656 369.053 205.656V203.88C369.053 203.336 368.949 202.872 368.741 202.488C368.549 202.088 368.197 201.792 367.685 201.6C367.189 201.392 366.493 201.288 365.597 201.288C364.733 201.288 364.053 201.4 363.557 201.624C363.077 201.848 362.733 202.144 362.525 202.512C362.317 202.88 362.213 203.28 362.213 203.712V204.12H360.869C360.853 204.04 360.845 203.96 360.845 203.88C360.845 203.8 360.845 203.704 360.845 203.592C360.845 202.776 361.053 202.112 361.469 201.6C361.901 201.088 362.493 200.712 363.245 200.472C364.013 200.216 364.893 200.088 365.885 200.088C366.861 200.088 367.685 200.232 368.357 200.52C369.029 200.808 369.541 201.216 369.893 201.744C370.261 202.272 370.445 202.912 370.445 203.664V211.272C370.445 211.576 370.493 211.784 370.589 211.896C370.701 212.008 370.861 212.064 371.069 212.064H372.149V212.928C371.877 213.04 371.613 213.12 371.357 213.168C371.117 213.232 370.877 213.264 370.637 213.264C370.205 213.264 369.877 213.168 369.653 212.976C369.445 212.784 369.301 212.528 369.221 212.208C369.141 211.872 369.101 211.504 369.101 211.104H368.933C368.613 211.568 368.205 211.968 367.709 212.304C367.229 212.624 366.693 212.864 366.101 213.024C365.525 213.2 364.925 213.288 364.301 213.288ZM364.493 212.064C365.037 212.064 365.573 211.976 366.101 211.8C366.645 211.624 367.133 211.376 367.565 211.056C368.013 210.72 368.373 210.328 368.645 209.88C368.917 209.416 369.053 208.904 369.053 208.344V206.856C367.405 206.856 366.045 206.944 364.973 207.12C363.901 207.296 363.101 207.6 362.573 208.032C362.061 208.464 361.805 209.064 361.805 209.832C361.805 210.36 361.925 210.792 362.165 211.128C362.405 211.464 362.725 211.704 363.125 211.848C363.541 211.992 363.997 212.064 364.493 212.064ZM376.161 217.368C375.537 217.368 374.961 217.232 374.433 216.96C373.921 216.688 373.513 216.304 373.209 215.808C372.905 215.328 372.753 214.784 372.753 214.176C372.753 213.472 372.929 212.864 373.281 212.352C373.649 211.824 374.137 211.432 374.745 211.176C374.313 211 373.985 210.736 373.761 210.384C373.553 210.016 373.449 209.632 373.449 209.232C373.449 208.704 373.633 208.24 374.001 207.84C374.385 207.424 374.873 207.16 375.465 207.048C374.953 206.68 374.537 206.24 374.217 205.728C373.913 205.2 373.761 204.624 373.761 204C373.761 203.264 373.937 202.6 374.289 202.008C374.641 201.416 375.177 200.952 375.897 200.616C376.617 200.264 377.537 200.088 378.657 200.088C379.201 200.088 379.697 200.136 380.145 200.232C380.609 200.312 381.025 200.432 381.393 200.592C381.953 200.432 382.401 200.16 382.737 199.776C383.089 199.392 383.321 198.92 383.433 198.36H384.849C384.817 198.792 384.697 199.216 384.489 199.632C384.297 200.032 384.017 200.376 383.649 200.664C383.297 200.952 382.857 201.136 382.329 201.216C382.745 201.6 383.049 202.032 383.241 202.512C383.449 202.992 383.553 203.488 383.553 204C383.553 204.736 383.377 205.4 383.025 205.992C382.673 206.584 382.137 207.056 381.417 207.408C380.713 207.76 379.801 207.936 378.681 207.936H376.665C376.153 207.936 375.721 208.032 375.369 208.224C375.033 208.416 374.865 208.752 374.865 209.232C374.865 209.648 375.041 209.968 375.393 210.192C375.761 210.4 376.217 210.504 376.761 210.504H381.561C382.473 210.504 383.217 210.824 383.793 211.464C384.369 212.088 384.657 212.864 384.657 213.792C384.657 214.464 384.497 215.072 384.177 215.616C383.857 216.16 383.409 216.584 382.833 216.888C382.257 217.208 381.601 217.368 380.865 217.368H376.161ZM376.377 216.216H380.817C381.265 216.216 381.665 216.112 382.017 215.904C382.385 215.712 382.681 215.448 382.905 215.112C383.129 214.776 383.241 214.408 383.241 214.008C383.241 213.336 383.049 212.792 382.665 212.376C382.281 211.96 381.817 211.752 381.273 211.752H376.377C375.769 211.752 375.249 211.976 374.817 212.424C374.385 212.856 374.169 213.384 374.169 214.008C374.169 214.68 374.385 215.216 374.817 215.616C375.249 216.016 375.769 216.216 376.377 216.216ZM378.657 206.76C379.841 206.76 380.713 206.512 381.273 206.016C381.849 205.52 382.137 204.848 382.137 204C382.137 203.168 381.849 202.504 381.273 202.008C380.713 201.512 379.841 201.264 378.657 201.264C377.489 201.264 376.617 201.512 376.041 202.008C375.465 202.504 375.177 203.168 375.177 204C375.177 204.528 375.305 205 375.561 205.416C375.817 205.832 376.201 206.16 376.713 206.4C377.241 206.64 377.889 206.76 378.657 206.76ZM391.339 213.288C390.171 213.288 389.171 213.056 388.339 212.592C387.523 212.112 386.899 211.384 386.467 210.408C386.051 209.432 385.843 208.192 385.843 206.688C385.843 205.168 386.051 203.928 386.467 202.968C386.899 201.992 387.531 201.272 388.363 200.808C389.211 200.328 390.251 200.088 391.483 200.088C392.651 200.088 393.627 200.32 394.411 200.784C395.195 201.248 395.787 201.912 396.187 202.776C396.587 203.64 396.787 204.68 396.787 205.896V207.048H387.307C387.307 208.264 387.467 209.248 387.787 210C388.123 210.736 388.595 211.272 389.203 211.608C389.811 211.928 390.539 212.088 391.387 212.088C392.075 212.088 392.659 212 393.139 211.824C393.635 211.632 394.035 211.384 394.339 211.08C394.659 210.776 394.899 210.424 395.059 210.024C395.235 209.624 395.331 209.216 395.347 208.8H396.691C396.675 209.376 396.563 209.936 396.355 210.48C396.147 211.008 395.827 211.488 395.395 211.92C394.963 212.336 394.411 212.672 393.739 212.928C393.067 213.168 392.267 213.288 391.339 213.288ZM387.307 205.872H395.347C395.347 205.024 395.243 204.312 395.035 203.736C394.843 203.144 394.571 202.672 394.219 202.32C393.867 201.952 393.451 201.688 392.971 201.528C392.491 201.368 391.963 201.288 391.387 201.288C390.539 201.288 389.819 201.456 389.227 201.792C388.651 202.112 388.195 202.608 387.859 203.28C387.539 203.952 387.355 204.816 387.307 205.872ZM399.478 213V200.376H400.534L400.702 202.44H400.87C401.238 201.832 401.646 201.36 402.094 201.024C402.558 200.672 403.054 200.432 403.582 200.304C404.11 200.16 404.662 200.088 405.238 200.088C406.038 200.088 406.734 200.216 407.326 200.472C407.934 200.728 408.398 201.152 408.718 201.744C409.054 202.32 409.222 203.104 409.222 204.096V213H407.83V204.168C407.83 203.592 407.75 203.12 407.59 202.752C407.446 202.368 407.238 202.08 406.966 201.888C406.694 201.68 406.374 201.536 406.006 201.456C405.654 201.376 405.262 201.336 404.83 201.336C404.174 201.336 403.534 201.496 402.91 201.816C402.302 202.136 401.806 202.608 401.422 203.232C401.054 203.856 400.87 204.616 400.87 205.512V213H399.478ZM421.96 213.288C420.904 213.288 420 213.056 419.248 212.592C418.512 212.128 417.944 211.4 417.544 210.408C417.16 209.416 416.968 208.128 416.968 206.544C416.968 205.056 417.168 203.84 417.568 202.896C417.968 201.952 418.536 201.248 419.272 200.784C420.024 200.32 420.912 200.088 421.936 200.088C422.48 200.088 422.984 200.152 423.448 200.28C423.928 200.408 424.36 200.616 424.744 200.904C425.144 201.192 425.496 201.584 425.8 202.08H425.968V195.648H427.36V213H426.304L426.112 211.104H425.944C425.496 211.856 424.92 212.408 424.216 212.76C423.512 213.112 422.76 213.288 421.96 213.288ZM422.08 212.064C423.008 212.064 423.752 211.864 424.312 211.464C424.888 211.064 425.304 210.48 425.56 209.712C425.832 208.944 425.968 208.008 425.968 206.904V206.448C425.968 205.344 425.848 204.456 425.608 203.784C425.384 203.112 425.088 202.6 424.72 202.248C424.352 201.88 423.944 201.632 423.496 201.504C423.064 201.376 422.64 201.312 422.224 201.312C421.392 201.312 420.696 201.488 420.136 201.84C419.576 202.176 419.152 202.712 418.864 203.448C418.576 204.184 418.432 205.152 418.432 206.352V207.024C418.432 208.288 418.584 209.288 418.888 210.024C419.208 210.76 419.64 211.288 420.184 211.608C420.744 211.912 421.376 212.064 422.08 212.064ZM435.519 213.288C434.351 213.288 433.351 213.056 432.519 212.592C431.703 212.112 431.079 211.384 430.646 210.408C430.231 209.432 430.023 208.192 430.023 206.688C430.023 205.168 430.231 203.928 430.646 202.968C431.079 201.992 431.711 201.272 432.543 200.808C433.391 200.328 434.431 200.088 435.663 200.088C436.831 200.088 437.807 200.32 438.591 200.784C439.375 201.248 439.967 201.912 440.367 202.776C440.767 203.64 440.967 204.68 440.967 205.896V207.048H431.487C431.487 208.264 431.647 209.248 431.967 210C432.303 210.736 432.775 211.272 433.383 211.608C433.991 211.928 434.719 212.088 435.567 212.088C436.255 212.088 436.839 212 437.319 211.824C437.815 211.632 438.215 211.384 438.519 211.08C438.839 210.776 439.079 210.424 439.239 210.024C439.415 209.624 439.511 209.216 439.527 208.8H440.871C440.855 209.376 440.743 209.936 440.535 210.48C440.327 211.008 440.007 211.488 439.575 211.92C439.143 212.336 438.591 212.672 437.919 212.928C437.247 213.168 436.447 213.288 435.519 213.288ZM431.487 205.872H439.527C439.527 205.024 439.423 204.312 439.215 203.736C439.023 203.144 438.751 202.672 438.399 202.32C438.047 201.952 437.631 201.688 437.151 201.528C436.671 201.368 436.143 201.288 435.567 201.288C434.719 201.288 433.999 201.456 433.407 201.792C432.831 202.112 432.375 202.608 432.039 203.28C431.719 203.952 431.535 204.816 431.487 205.872ZM448.861 217.152V200.376H449.917L450.085 202.272H450.253C450.717 201.52 451.285 200.968 451.957 200.616C452.629 200.264 453.389 200.088 454.237 200.088C455.309 200.088 456.213 200.32 456.949 200.784C457.685 201.248 458.253 201.976 458.653 202.968C459.053 203.96 459.253 205.248 459.253 206.832C459.253 208.304 459.045 209.52 458.629 210.48C458.229 211.424 457.661 212.128 456.925 212.592C456.189 213.056 455.301 213.288 454.261 213.288C453.781 213.288 453.301 213.224 452.821 213.096C452.341 212.968 451.893 212.76 451.477 212.472C451.061 212.184 450.709 211.792 450.421 211.296H450.253V217.152H448.861ZM453.973 212.064C454.805 212.064 455.501 211.896 456.061 211.56C456.621 211.208 457.045 210.664 457.333 209.928C457.621 209.176 457.765 208.208 457.765 207.024V206.352C457.765 205.072 457.605 204.072 457.285 203.352C456.981 202.616 456.549 202.096 455.989 201.792C455.445 201.472 454.821 201.312 454.117 201.312C453.221 201.312 452.485 201.512 451.909 201.912C451.333 202.312 450.909 202.896 450.637 203.664C450.381 204.432 450.253 205.368 450.253 206.472V206.928C450.253 208.032 450.365 208.92 450.589 209.592C450.829 210.264 451.133 210.784 451.501 211.152C451.869 211.504 452.269 211.744 452.701 211.872C453.133 212 453.557 212.064 453.973 212.064ZM461.916 213V200.376H462.996L463.14 202.536H463.284C463.38 202.152 463.532 201.776 463.74 201.408C463.964 201.024 464.276 200.712 464.676 200.472C465.076 200.216 465.572 200.088 466.164 200.088C466.404 200.088 466.612 200.104 466.788 200.136C466.964 200.168 467.092 200.2 467.172 200.232V201.48H466.476C465.9 201.48 465.404 201.6 464.988 201.84C464.588 202.064 464.26 202.368 464.004 202.752C463.764 203.136 463.588 203.568 463.476 204.048C463.364 204.528 463.308 205.016 463.308 205.512V213H461.916ZM473.068 213.288C471.868 213.288 470.9 212.992 470.164 212.4C469.444 211.808 469.084 210.768 469.084 209.28V200.376H470.476V209.208C470.476 209.784 470.548 210.264 470.692 210.648C470.852 211.016 471.068 211.304 471.34 211.512C471.612 211.704 471.924 211.84 472.276 211.92C472.644 212 473.044 212.04 473.476 212.04C474.132 212.04 474.764 211.88 475.372 211.56C475.98 211.24 476.476 210.768 476.86 210.144C477.244 209.504 477.436 208.744 477.436 207.864V200.376H478.828V213H477.772L477.628 210.936H477.46C477.092 211.544 476.676 212.024 476.212 212.376C475.764 212.712 475.268 212.944 474.724 213.072C474.196 213.216 473.644 213.288 473.068 213.288ZM487.011 213.288C485.843 213.288 484.843 213.056 484.011 212.592C483.195 212.112 482.571 211.384 482.139 210.408C481.723 209.432 481.515 208.192 481.515 206.688C481.515 205.168 481.723 203.928 482.139 202.968C482.571 201.992 483.203 201.272 484.035 200.808C484.883 200.328 485.923 200.088 487.155 200.088C488.323 200.088 489.299 200.32 490.083 200.784C490.867 201.248 491.459 201.912 491.859 202.776C492.259 203.64 492.459 204.68 492.459 205.896V207.048H482.979C482.979 208.264 483.139 209.248 483.459 210C483.795 210.736 484.267 211.272 484.875 211.608C485.483 211.928 486.211 212.088 487.059 212.088C487.747 212.088 488.331 212 488.811 211.824C489.307 211.632 489.707 211.384 490.011 211.08C490.331 210.776 490.571 210.424 490.731 210.024C490.907 209.624 491.003 209.216 491.019 208.8H492.363C492.347 209.376 492.235 209.936 492.027 210.48C491.819 211.008 491.499 211.488 491.067 211.92C490.635 212.336 490.083 212.672 489.411 212.928C488.739 213.168 487.939 213.288 487.011 213.288ZM482.979 205.872H491.019C491.019 205.024 490.915 204.312 490.707 203.736C490.515 203.144 490.243 202.672 489.891 202.32C489.539 201.952 489.123 201.688 488.643 201.528C488.163 201.368 487.635 201.288 487.059 201.288C486.211 201.288 485.491 201.456 484.899 201.792C484.323 202.112 483.867 202.608 483.531 203.28C483.211 203.952 483.027 204.816 482.979 205.872ZM500.526 213.288C499.662 213.288 498.894 213.112 498.222 212.76C497.566 212.408 497.006 211.856 496.542 211.104H496.374L496.206 213H495.15V195.648H496.542V202.08H496.71C496.998 201.584 497.35 201.192 497.766 200.904C498.182 200.616 498.63 200.408 499.11 200.28C499.59 200.152 500.07 200.088 500.55 200.088C501.59 200.088 502.478 200.32 503.214 200.784C503.95 201.248 504.518 201.952 504.918 202.896C505.334 203.84 505.542 205.056 505.542 206.544C505.542 208.128 505.342 209.416 504.942 210.408C504.542 211.4 503.974 212.128 503.238 212.592C502.502 213.056 501.598 213.288 500.526 213.288ZM500.406 212.064C501.11 212.064 501.734 211.912 502.278 211.608C502.838 211.288 503.27 210.76 503.574 210.024C503.894 209.288 504.054 208.288 504.054 207.024V206.352C504.054 205.152 503.91 204.184 503.622 203.448C503.334 202.712 502.91 202.176 502.35 201.84C501.79 201.488 501.094 201.312 500.262 201.312C499.846 201.312 499.422 201.376 498.99 201.504C498.558 201.632 498.158 201.88 497.79 202.248C497.422 202.6 497.118 203.112 496.878 203.784C496.654 204.456 496.542 205.344 496.542 206.448V206.904C496.542 208.008 496.67 208.944 496.926 209.712C497.198 210.48 497.622 211.064 498.198 211.464C498.774 211.864 499.51 212.064 500.406 212.064ZM508.205 197.592V195.648H509.597V197.592H508.205ZM508.205 213V200.376H509.597V213H508.205ZM515.696 213.264C515.152 213.264 514.72 213.176 514.4 213C514.096 212.824 513.88 212.568 513.752 212.232C513.624 211.896 513.56 211.512 513.56 211.08V201.6H511.832V200.376H513.584L513.848 196.872H514.952V200.376H517.472V201.6H514.952V210.744C514.952 211.208 515.008 211.544 515.12 211.752C515.248 211.96 515.528 212.064 515.96 212.064H517.472V212.928C517.312 213.008 517.128 213.072 516.92 213.12C516.712 213.168 516.496 213.2 516.272 213.216C516.064 213.248 515.872 213.264 515.696 213.264ZM522.95 213.288C522.406 213.288 521.886 213.224 521.39 213.096C520.91 212.968 520.486 212.768 520.118 212.496C519.75 212.208 519.462 211.848 519.254 211.416C519.046 210.984 518.942 210.456 518.942 209.832C518.942 208.952 519.158 208.24 519.59 207.696C520.038 207.152 520.654 206.736 521.438 206.448C522.222 206.144 523.15 205.936 524.222 205.824C525.294 205.712 526.454 205.656 527.702 205.656V203.88C527.702 203.336 527.598 202.872 527.39 202.488C527.198 202.088 526.846 201.792 526.334 201.6C525.838 201.392 525.142 201.288 524.246 201.288C523.382 201.288 522.702 201.4 522.206 201.624C521.726 201.848 521.382 202.144 521.174 202.512C520.966 202.88 520.862 203.28 520.862 203.712V204.12H519.518C519.502 204.04 519.494 203.96 519.494 203.88C519.494 203.8 519.494 203.704 519.494 203.592C519.494 202.776 519.702 202.112 520.118 201.6C520.55 201.088 521.142 200.712 521.894 200.472C522.662 200.216 523.542 200.088 524.534 200.088C525.51 200.088 526.334 200.232 527.006 200.52C527.678 200.808 528.19 201.216 528.542 201.744C528.91 202.272 529.094 202.912 529.094 203.664V211.272C529.094 211.576 529.142 211.784 529.238 211.896C529.35 212.008 529.51 212.064 529.718 212.064H530.798V212.928C530.526 213.04 530.262 213.12 530.006 213.168C529.766 213.232 529.526 213.264 529.286 213.264C528.854 213.264 528.526 213.168 528.302 212.976C528.094 212.784 527.95 212.528 527.87 212.208C527.79 211.872 527.75 211.504 527.75 211.104H527.582C527.262 211.568 526.854 211.968 526.358 212.304C525.878 212.624 525.342 212.864 524.75 213.024C524.174 213.2 523.574 213.288 522.95 213.288ZM523.142 212.064C523.686 212.064 524.222 211.976 524.75 211.8C525.294 211.624 525.782 211.376 526.214 211.056C526.662 210.72 527.022 210.328 527.294 209.88C527.566 209.416 527.702 208.904 527.702 208.344V206.856C526.054 206.856 524.694 206.944 523.622 207.12C522.55 207.296 521.75 207.6 521.222 208.032C520.71 208.464 520.454 209.064 520.454 209.832C520.454 210.36 520.574 210.792 520.814 211.128C521.054 211.464 521.374 211.704 521.774 211.848C522.19 211.992 522.646 212.064 523.142 212.064Z" fill="white"/>
</g>
<defs>
<linearGradient id="paint0_linear_638_1744" x1="872.149" y1="241.477" x2="355.017" y2="244.413" gradientUnits="userSpaceOnUse">
<stop offset="0.00873047" stop-color="#5F8BFF"/>
<stop offset="0.25373" stop-color="#2354D1"/>
<stop offset="1" stop-color="#18275E" stop-opacity="0"/>
</linearGradient>
<linearGradient id="paint1_linear_638_1744" x1="838.514" y1="172.477" x2="472.006" y2="173.952" gradientUnits="userSpaceOnUse">
<stop offset="0.00873047" stop-color="#5F8BFF"/>
<stop offset="0.25373" stop-color="#2354D1"/>
<stop offset="1" stop-color="#18275E"/>
</linearGradient>
<linearGradient id="paint2_linear_638_1744" x1="851.149" y1="103.477" x2="334.017" y2="106.413" gradientUnits="userSpaceOnUse">
<stop offset="0.00873047" stop-color="#5F8BFF"/>
<stop offset="0.25373" stop-color="#2354D1"/>
<stop offset="1" stop-color="#18275E" stop-opacity="0"/>
</linearGradient>
<linearGradient id="paint3_linear_638_1744" x1="748.149" y1="103.477" x2="231.017" y2="106.413" gradientUnits="userSpaceOnUse">
<stop stop-color="#C7D898"/>
<stop offset="0.13873" stop-color="#46B486"/>
<stop offset="1" stop-color="#18275E" stop-opacity="0"/>
</linearGradient>
<linearGradient id="paint4_linear_638_1744" x1="517.149" y1="115.477" x2="0.0165362" y2="118.413" gradientUnits="userSpaceOnUse">
<stop offset="0.00873047" stop-color="#5F8BFF"/>
<stop offset="0.25373" stop-color="#2354D1"/>
<stop offset="1" stop-color="#18275E" stop-opacity="0"/>
</linearGradient>
<linearGradient id="paint5_linear_638_1744" x1="758.149" y1="34.477" x2="241.017" y2="37.4131" gradientUnits="userSpaceOnUse">
<stop offset="0.00873047" stop-color="#5F8BFF"/>
<stop offset="0.25373" stop-color="#2354D1"/>
<stop offset="1" stop-color="#18275E" stop-opacity="0"/>
</linearGradient>
<linearGradient id="paint6_linear_638_1744" x1="738.149" y1="310.477" x2="221.017" y2="313.413" gradientUnits="userSpaceOnUse">
<stop offset="0.00873047" stop-color="#5F8BFF"/>
<stop offset="0.25373" stop-color="#2354D1"/>
<stop offset="1" stop-color="#18275E" stop-opacity="0"/>
</linearGradient>
<linearGradient id="paint7_linear_638_1744" x1="581.149" y1="253.477" x2="64.0165" y2="256.413" gradientUnits="userSpaceOnUse">
<stop offset="0.00873047" stop-color="#5F8BFF"/>
<stop offset="0.25373" stop-color="#2354D1"/>
<stop offset="1" stop-color="#18275E" stop-opacity="0"/>
</linearGradient>
<linearGradient id="paint8_linear_638_1744" x1="786.149" y1="365.477" x2="269.017" y2="368.413" gradientUnits="userSpaceOnUse">
<stop stop-color="#C7D898"/>
<stop offset="0.13873" stop-color="#46B486"/>
<stop offset="1" stop-color="#18275E" stop-opacity="0"/>
</linearGradient>
<linearGradient id="paint9_linear_638_1744" x1="691.149" y1="219.477" x2="174.017" y2="222.413" gradientUnits="userSpaceOnUse">
<stop stop-color="#C7D898"/>
<stop offset="0.13873" stop-color="#46B486"/>
<stop offset="1" stop-color="#18275E" stop-opacity="0"/>
</linearGradient>
<linearGradient id="paint10_linear_638_1744" x1="586.149" y1="150.477" x2="69.0165" y2="153.413" gradientUnits="userSpaceOnUse">
<stop offset="0.00873047" stop-color="#5F8BFF"/>
<stop offset="0.25373" stop-color="#2354D1"/>
<stop offset="1" stop-color="#18275E" stop-opacity="0"/>
</linearGradient>
<clipPath id="clip0_638_1744">
<rect width="905" height="400" fill="white"/>
</clipPath>
</defs>
</svg>
