<svg width="132" height="23" viewBox="0 0 132 23" fill="none" xmlns="http://www.w3.org/2000/svg">
<path d="M9.33008 18.288C7.61808 18.288 6.06608 17.92 4.67408 17.184C3.29808 16.432 2.21008 15.4 1.41008 14.088C0.626077 12.76 0.234077 11.264 0.234077 9.6C0.234077 7.936 0.626077 6.448 1.41008 5.136C2.21008 3.808 3.29808 2.776 4.67408 2.04C6.06608 1.288 7.62608 0.912 9.35408 0.912C10.8101 0.912 12.1221 1.168 13.2901 1.68C14.4741 2.192 15.4661 2.928 16.2661 3.888L13.7701 6.192C12.6341 4.88 11.2261 4.224 9.54608 4.224C8.50608 4.224 7.57808 4.456 6.76208 4.92C5.94608 5.368 5.30608 6 4.84208 6.816C4.39408 7.632 4.17008 8.56 4.17008 9.6C4.17008 10.64 4.39408 11.568 4.84208 12.384C5.30608 13.2 5.94608 13.84 6.76208 14.304C7.57808 14.752 8.50608 14.976 9.54608 14.976C11.2261 14.976 12.6341 14.312 13.7701 12.984L16.2661 15.288C15.4661 16.264 14.4741 17.008 13.2901 17.52C12.1061 18.032 10.7861 18.288 9.33008 18.288ZM31.0435 5.088V15.84C31.0435 18.208 30.4435 19.968 29.2435 21.12C28.0435 22.272 26.2995 22.848 24.0115 22.848C22.7955 22.848 21.6435 22.696 20.5555 22.392C19.4835 22.088 18.5795 21.648 17.8435 21.072L19.3315 18.384C19.8755 18.832 20.5395 19.184 21.3235 19.44C22.1075 19.696 22.8995 19.824 23.6995 19.824C24.9475 19.824 25.8595 19.536 26.4355 18.96C27.0115 18.384 27.2995 17.504 27.2995 16.32V15.888C26.8195 16.368 26.2515 16.736 25.5955 16.992C24.9395 17.248 24.2355 17.376 23.4835 17.376C21.7875 17.376 20.4435 16.896 19.4515 15.936C18.4595 14.96 17.9635 13.504 17.9635 11.568V5.088H21.7075V11.016C21.7075 13.112 22.5795 14.16 24.3235 14.16C25.2195 14.16 25.9395 13.872 26.4835 13.296C27.0275 12.704 27.2995 11.832 27.2995 10.68V5.088H31.0435ZM41.8801 4.896C43.0801 4.896 44.1681 5.176 45.1441 5.736C46.1361 6.28 46.9121 7.056 47.4721 8.064C48.0321 9.056 48.3121 10.216 48.3121 11.544C48.3121 12.872 48.0321 14.04 47.4721 15.048C46.9121 16.04 46.1361 16.816 45.1441 17.376C44.1681 17.92 43.0801 18.192 41.8801 18.192C40.1041 18.192 38.7521 17.632 37.8241 16.512V18H34.2481V0.191999H37.9921V6.456C38.9361 5.416 40.2321 4.896 41.8801 4.896ZM41.2321 15.12C42.1921 15.12 42.9761 14.8 43.5841 14.16C44.2081 13.504 44.5201 12.632 44.5201 11.544C44.5201 10.456 44.2081 9.592 43.5841 8.952C42.9761 8.296 42.1921 7.968 41.2321 7.968C40.2721 7.968 39.4801 8.296 38.8561 8.952C38.2481 9.592 37.9441 10.456 37.9441 11.544C37.9441 12.632 38.2481 13.504 38.8561 14.16C39.4801 14.8 40.2721 15.12 41.2321 15.12ZM57.0584 15.192C57.7304 15.192 58.3224 15.096 58.8344 14.904C59.3624 14.696 59.8504 14.376 60.2984 13.944L62.2904 16.104C61.0744 17.496 59.2984 18.192 56.9624 18.192C55.5064 18.192 54.2184 17.912 53.0984 17.352C51.9784 16.776 51.1144 15.984 50.5064 14.976C49.8984 13.968 49.5944 12.824 49.5944 11.544C49.5944 10.28 49.8904 9.144 50.4824 8.136C51.0904 7.112 51.9144 6.32 52.9544 5.76C54.0104 5.184 55.1944 4.896 56.5064 4.896C57.7384 4.896 58.8584 5.16 59.8664 5.688C60.8744 6.2 61.6744 6.952 62.2664 7.944C62.8744 8.92 63.1784 10.08 63.1784 11.424L53.6264 13.272C53.8984 13.912 54.3224 14.392 54.8984 14.712C55.4904 15.032 56.2104 15.192 57.0584 15.192ZM56.5064 7.728C55.5624 7.728 54.7944 8.032 54.2024 8.64C53.6104 9.248 53.2984 10.088 53.2664 11.16L59.5544 9.936C59.3784 9.264 59.0184 8.728 58.4744 8.328C57.9304 7.928 57.2744 7.728 56.5064 7.728ZM69.007 6.792C69.455 6.168 70.055 5.696 70.807 5.376C71.575 5.056 72.455 4.896 73.447 4.896V8.352C73.031 8.32 72.751 8.304 72.607 8.304C71.535 8.304 70.695 8.608 70.087 9.216C69.479 9.808 69.175 10.704 69.175 11.904V18H65.431V5.088H69.007V6.792Z" fill="#FF9900"/>
<path d="M83.1629 0.912C84.7149 0.912 86.0669 1.216 87.2189 1.824C88.3709 2.432 89.2669 3.328 89.9069 4.512C90.5469 5.696 90.8669 7.128 90.8669 8.808V18H86.9789V13.968H79.2989V18H75.4589V8.808C75.4589 7.128 75.7789 5.696 76.4189 4.512C77.0589 3.328 77.9549 2.432 79.1069 1.824C80.2589 1.216 81.6109 0.912 83.1629 0.912ZM86.9789 10.848V8.448C86.9789 7.056 86.6349 6.008 85.9469 5.304C85.2589 4.584 84.3229 4.224 83.1389 4.224C81.9389 4.224 80.9949 4.584 80.3069 5.304C79.6349 6.008 79.2989 7.056 79.2989 8.448V10.848H86.9789ZM107.184 5.088V18H103.632V16.464C103.136 17.024 102.544 17.456 101.856 17.76C101.168 18.048 100.424 18.192 99.6245 18.192C97.9285 18.192 96.5845 17.704 95.5925 16.728C94.6005 15.752 94.1045 14.304 94.1045 12.384V5.088H97.8485V11.832C97.8485 13.912 98.7205 14.952 100.464 14.952C101.36 14.952 102.08 14.664 102.624 14.088C103.168 13.496 103.44 12.624 103.44 11.472V5.088H107.184ZM115.021 18.192C113.565 18.192 112.429 17.808 111.613 17.04C110.797 16.256 110.389 15.152 110.389 13.728V0.191999H114.133V13.512C114.133 14.056 114.269 14.48 114.541 14.784C114.829 15.072 115.229 15.216 115.741 15.216C115.933 15.216 116.125 15.192 116.317 15.144C116.525 15.096 116.685 15.04 116.797 14.976L116.965 17.88C116.341 18.088 115.693 18.192 115.021 18.192ZM131.409 5.088V18H127.833V16.512C126.905 17.632 125.561 18.192 123.801 18.192C122.585 18.192 121.481 17.92 120.489 17.376C119.513 16.832 118.745 16.056 118.185 15.048C117.625 14.04 117.345 12.872 117.345 11.544C117.345 10.216 117.625 9.048 118.185 8.04C118.745 7.032 119.513 6.256 120.489 5.712C121.481 5.168 122.585 4.896 123.801 4.896C125.449 4.896 126.737 5.416 127.665 6.456V5.088H131.409ZM124.449 15.12C125.393 15.12 126.177 14.8 126.801 14.16C127.425 13.504 127.737 12.632 127.737 11.544C127.737 10.456 127.425 9.592 126.801 8.952C126.177 8.296 125.393 7.968 124.449 7.968C123.489 7.968 122.697 8.296 122.073 8.952C121.449 9.592 121.137 10.456 121.137 11.544C121.137 12.632 121.449 13.504 122.073 14.16C122.697 14.8 123.489 15.12 124.449 15.12Z" fill="#5441FF"/>
</svg>
