<svg width="150" height="150" viewBox="0 0 150 150" fill="none" xmlns="http://www.w3.org/2000/svg">
<rect width="150" height="150" fill="white"/>
<g clip-path="url(#clip0_1041_971)">
<path d="M74.962 102.304L112.673 102.251V118.526H58.7961V75.2655C58.8009 51.4579 78.0975 32.1613 101.9 32.1613C125.703 32.1613 145 51.4579 145 75.2608V118.522H128.839V75.3082C127.421 39.5801 76.3803 39.5849 74.962 75.3082V102.299V102.304Z" fill="#5340FF"/>
<path d="M93.4997 77.7891C96.4758 77.7891 98.8883 75.3765 98.8883 72.4005C98.8883 69.4244 96.4758 67.0118 93.4997 67.0118C90.5237 67.0118 88.1111 69.4244 88.1111 72.4005C88.1111 75.3765 90.5237 77.7891 93.4997 77.7891Z" fill="#5340FF"/>
<path d="M70.7878 38.2425C64.237 34.2816 56.5715 32 48.3557 32C24.4104 32 5 51.3678 5 75.2608C5 99.1539 24.4104 118.522 48.3557 118.522H53.4882V102.546H48.2513C33.2903 102.546 21.1659 90.4163 21.1659 75.4601C21.1659 60.5038 33.295 48.3746 48.2513 48.3746C52.4588 48.3746 56.4434 49.3328 59.9963 51.0452L60.0152 51.0547C62.719 46.3207 65.1999 42.7203 70.7878 38.2377V38.2425Z" fill="#FF8A00"/>
<path d="M53.4881 90.5681C51.8421 91.1278 50.0823 91.4267 48.2513 91.4267C39.2434 91.4267 31.9384 84.1216 31.9384 75.1137C31.9384 66.1058 39.2434 58.8008 48.2513 58.8008C50.9598 58.8008 53.5166 59.4601 55.765 60.6318C54.285 65.2709 53.4881 70.2137 53.4881 75.3414V90.5633V90.5681Z" fill="#FF8A00"/>
</g>
<defs>
<clipPath id="clip0_1041_971">
<rect width="140" height="86.5264" fill="white" transform="translate(5 32)"/>
</clipPath>
</defs>
</svg>
